<?xml version="1.0" encoding="UTF-8"?>
<svg id="Layer_1" data-name="Layer 1" xmlns="http://www.w3.org/2000/svg" viewBox="0 0 16 16">
  <defs>
    <style>
      .cls-1 {
        fill: blue;
      }

      .cls-2 {
        fill: #ffffce;
      }
    </style>
  </defs>
  <path class="cls-1" d="M13.31,5.57l1.86-2.81-2.67,1.01c.11-.19.71-1.35.23-1.77-.06-.05-.15-.08-.29-.07-.03-.3-.16-1.02-.64-1.19-1.04-.39-1.88.32-2.33,1.03s-.63,1.47-.83,1.9l.27-2.38c-.34.53-.68,1.06-1.02,1.6-.73-1.29-2.05-1.73-2.97-1.26-.77.39-1.03,1.29-1.04,1.34-.24.86.1,1.78.88,2.3-1.35-.78-2.69-1.55-4.04-2.33.71.94,1.42,1.88,2.13,2.82-.83-.22-1.66.15-1.94.73-.4.81.43,1.67.54,1.79.52.55,1.19.63,1.45.65-.06.04-.46.31-.51.71-.05.46.36.94,1.02.97-1.41.86-1.85,2.39-1.32,3.3.33.56.93.86,1.7.8.7-.06,1.65-.67,1.71-1.45-.04.58-.03,2.15-.03,2.15,0,0,1.11-1.53,1.57-2.24.65,1.18,1.1,1.85,2.29,1.57.53-.13,1.47-1.13,1-2.08,1.47.65,3.02,1.33,3.47,1.52,0,0-1.52-2.24-2.22-3.42.16.12.51.35,1,.41.46.06,1.07-.03,1.42-.36.56-.54.6-1.83-.22-2.95.42-.35.61-.91.5-1.4-.11-.48-.49-.82-.97-.89Z"/>
  <path class="cls-2" d="M11.35,7.88c-2.47,1.17-3.13,1.94-4.3,5.02-.16-2.89-.58-3.51-2.75-4.06,2.47-1.17,3.13-1.94,4.3-5.02.16,2.89.58,3.51,2.75,4.06Z"/>
</svg>