<?xml version="1.0" encoding="UTF-8"?>
<svg id="Layer_2" data-name="Layer 2" xmlns="http://www.w3.org/2000/svg" viewBox="0 0 314.97 114.23">
  <defs>
    <style>
      .cls-1 {
        fill: blue;
      }

      .cls-2 {
        fill: #ffffce;
      }
    </style>
  </defs>
  <g id="Layer_1-2" data-name="Layer 1">
    <g>
      <path class="cls-1" d="M308.91,73.15c-4.03,1.84-7.43,3.45-11.49,4.87-7.53,2.64-13.8,4.51-19.26,5.36-.23.04-.36-.18-.3-.4,1.54-6.05,8.57-25.34,4.61-30.21-1.86-2.27-11.82-2.82-22.87,3.17-14.61,7.92-21.95,13.1-29.25,19.81-.01,0-.02,0-.03.01l-.54.49-1.45-1.57c.56-.51,1.43-.47,1.95.09,9.76-13.34,17.16-22.05,22.74-28.04,2.1-2.25,5.87-6.19,4.86-10.07-1.06-4.07-5.56-6.19-8.84-6.35-4.88-.22-9.81-.04-14.78.44-7.53.24-15.18,1.06-22.82,2.32l8.43-9.85c.89-1.04.96-2.55.18-3.67-.58-.82-1.5-1.28-2.46-1.28-.35,0-.71.06-1.06.19l-15.98,6.03c1.21-3.09,1.57-6.46-.57-9.1-.37-.47-.82-.87-1.34-1.18-.06-5.14-1.68-8.73-4.73-10.46-1.21-.69-2.6-1.03-4.12-1.03-5.74,0-12.52,5.11-16.57,8.17-.76.57-1.52,1.17-2.25,1.79l1.56-5.15c.11-.31.17-.65.17-1,0-1.63-1.3-2.96-2.93-3h-.2c-.57.03-1.1.21-1.54.51-.18.12-.35.26-.5.42h-.01s-.01.02-.02.03l-6.86,7.36c-3.98-7.24-10.79-11.85-18-11.85-1.56,0-3.08.22-4.54.66-7.82,2.34-11.59,10.21-11.63,10.29-1.4,2.91-2,6.06-1.83,9.17-5.81-4.95-11.62-9.89-17.43-14.83-.56-.48-1.25-.72-1.94-.72-.65,0-1.31.21-1.85.64-1.12.88-1.47,2.43-.83,3.7,2.03,4.06,4.07,8.11,6.1,12.16,1.08,2.16,2.16,4.31,3.24,6.46-.24-.01-.49-.02-.73-.02-4.91,0-9.35,2.03-11.88,5.43-5.03,6.79-.1,15.34,1.53,17.8,1.62,2.47,3.86,4.54,6.54,6.07-.7.85-1.31,1.86-1.68,3.06-.82,2.65-.27,5.62,1.48,8.05-4.91,2.53-9.83,5.05-14.77,7.56l-1.32-1.44c.51-.47,1.33-.48,1.86-.05,1.81-4.35,3.56-8.59,5.37-12.95l.16-.54c1.62-5.56-1.07-9.7-3.87-11.57-3.34-2.22-9.49-1.59-23.48,6.33-6.34,3.59-17.56,11.68-26.9,19.47l-.96.88-1.45-1.57c.52-.47,1.29-.46,1.82-.01,5.2-7.15,13.1-16.98,16.97-21.9,7-8.9,10.19-17.58,7.01-22.78-3.07-5.02-9.6-4.53-19.57-4.89-5.8-.21-13.74-.33-23.61-.34-16.5-.03-23.59.23-24.45.24l.29,18c19.86-.32,32.39-.35,45.23.01-4.36,5.16-8.88,11-13.36,17.54-5.92,8.64-11.36,17.75-15.23,25.33,6.79,5.86,13.4,11.34,19.97,17.58,6.15-6.29,14.87-13.89,24.31-20.34,4.06-2.78,8.04-5.21,11.85-7.33.14-.09.31-.06.41.05.07.09.08.22.03.34l-4.92,13.29c-1.76,5.03.31,10.55,5.26,13.2,3.27,1.75,7.26,1.53,10.47-.32,5.21-3.03,9.91-5.92,14.44-8.73.3-.18,1.06-.65,2.32-1.4-.97,8.89.64,14.4,4.82,16.39,1.02.48,2.16.73,3.4.73,4.06,0,9.03-2.64,13.92-7.21l-.66,6.44c-.14,1.28.56,2.5,1.73,3.04.4.18.83.27,1.25.27.81,0,1.6-.33,2.18-.94,3.44-3.63,6.88-7.27,10.31-10.91,3.68,6.49,9.54,9.49,14.11,9.49,1.54,0,2.95-.32,4.18-.95,3.81-1.96,6.15-6.86,6.44-12.58,6.99,6.05,13.97,12.1,20.96,18.15.56.48,1.26.73,1.96.73.6,0,1.21-.18,1.73-.55,1.12-.79,1.57-2.25,1.07-3.54-4.3-11.05-6.57-17.64-7.76-21.56.62.32,1.31.61,2.06.86,1.87.64,4.05.99,6.12.99,3,0,5.68-.71,7.75-2.05,3.25-2.12,5.51-6.15,6.2-11.05.59-4.2.01-8.77-1.65-13.11,3.28-2.79,5.19-6.9,5.03-11.07,0-.16-.02-.31-.03-.43-.01-.11-.02-.23-.03-.34,8.29-1.74,16.62-2.97,24.77-3.46.32-.02.51.37.3.61-10.04,10.11-19.39,23.23-27.62,35.5l18.69,17.71c9.31-8.28,23.14-18.73,38.87-26.98,1.47-.77,1.68-.77.96.8l-5.09,12.95c-1.29,3.71-.55,7.64,1.99,10.52,2.66,3,6.89,4.31,11.04,3.42,23.1-4.99,37.8-12.08,44.9-15.04-2.31-5.54-3.75-9.73-6.06-15.26ZM206.79,33.9l-9.66,11.28c3.49,1.12,5.84,4.17,6.07,7.84.01.07.02.15.02.22.17,3.93-2.1,7.85-5.74,9.94,4.65,9.64,2.55,19.41-2.47,22.68-1.72,1.11-3.93,1.57-6.12,1.57-1.83,0-3.65-.32-5.16-.83-4.33-1.47-6-4.52-6.85-4.52-.05,0-.1.01-.15.04-1.03.57.31,6.89,8.94,29.11-8.91-7.71-17.81-15.42-26.72-23.14,2.18,7.83-.23,15.23-4.01,17.17-.8.41-1.76.62-2.81.62-4.46,0-10.53-3.82-13.2-11.82-4.46,4.73-8.93,9.46-13.4,14.18.54-5.22,1.08-10.44,1.62-15.67-6.27,8.33-13.32,13.13-17.86,13.13-.78,0-1.49-.15-2.11-.44-4.69-2.23-3.24-12.7-2.93-14.93.03-.25.07-.49.11-.73,2.97-1.78,7.14-4.26,12.63-7.48.36-.21.74-.43,1.14-.66,0,0,.74-.43,1.52-.86.92-.51,7.56-3.98,16.93-8.82-.44,1.92-1.05,4.1-1.82,6.58-.1.35.26.67.57.67.12,0,.24-.05.31-.17,9.77-15.53,13.84-18.21,28.01-19.52.45-.04.44-.66-.02-.87-10.88-4.77-12.08-8.28-7.25-24,.11-.35-.25-.66-.56-.66-.13,0-.24.05-.32.17-9.76,15.52-13.83,18.2-28,19.51-.46.05-.44.67.02.87.67.29,1.31.6,1.9.9.24.12.46.26.67.43.13.1.25.19.38.3-6.87,3.51-13.72,7.03-20.58,10.54-1.41-1.74-1.9-3.89-1.32-5.77.94-3.02,4.38-4.51,4.85-4.7-1.91-.51-6.88-2.11-10.07-6.98-.71-1.07-5.76-8.77-1.62-14.35,1.95-2.62,5.54-4.22,9.47-4.22,2.06,0,4.22.44,6.29,1.41-4.07-8.12-8.15-16.23-12.22-24.35,9.12,7.76,18.25,15.53,27.37,23.3-5.14-5-6.44-12.46-3.45-18.65.15-.32,3.4-6.78,9.77-8.69,1.19-.36,2.43-.53,3.68-.53,6.76,0,13.96,5.11,17.1,14.21l9.96-10.68-5.36,17.64c2.15-2.94,5.6-7.06,10.69-10.89,3.69-2.79,10.03-7.56,14.76-7.56.96,0,1.85.19,2.64.64,3.4,1.93,3.31,7.62,3.15,9.94,1.08.13,1.7.51,2.07.97,3.1,3.84-3.1,11.79-4.19,13.1l24.13-9.1-10.8,12.62h0Z"/>
      <path class="cls-2" d="M217.59,21.27l-10.8,12.62h0s-9.66,11.29-9.66,11.29c3.49,1.12,5.84,4.17,6.07,7.84.01.07.02.15.02.22.17,3.93-2.1,7.85-5.74,9.94,4.65,9.64,2.55,19.41-2.47,22.68-1.72,1.11-3.93,1.57-6.12,1.57-1.83,0-3.65-.32-5.16-.83-4.33-1.47-6-4.52-6.85-4.52-.05,0-.1.01-.15.04-1.03.57.31,6.89,8.94,29.11-8.91-7.71-17.81-15.42-26.72-23.14,2.18,7.83-.23,15.23-4.01,17.17-.8.41-1.76.62-2.81.62-4.46,0-10.53-3.82-13.2-11.82-4.46,4.73-8.93,9.46-13.4,14.18.54-5.22,1.08-10.44,1.62-15.67-6.27,8.33-13.32,13.13-17.86,13.13-.78,0-1.49-.15-2.11-.44-4.69-2.23-3.24-12.7-2.93-14.93.03-.25.07-.49.11-.73,2.97-1.78,7.14-4.26,12.63-7.48.36-.21.74-.43,1.14-.66,0,0,.74-.43,1.52-.86.92-.51,7.56-3.98,16.93-8.82-.44,1.92-1.05,4.1-1.82,6.58-.1.35.26.67.57.67.12,0,.24-.05.31-.17,9.77-15.53,13.84-18.21,28.01-19.52.45-.04.44-.66-.02-.87-10.88-4.77-12.08-8.28-7.25-24,.11-.35-.25-.66-.56-.66-.13,0-.24.05-.32.17-9.76,15.52-13.83,18.2-28,19.51-.46.05-.44.67.02.87.67.29,1.31.6,1.9.9.24.12.46.26.67.43.13.1.25.19.38.3-6.87,3.51-13.72,7.03-20.58,10.54-1.41-1.74-1.9-3.89-1.32-5.77.94-3.02,4.38-4.51,4.85-4.7-1.91-.51-6.88-2.11-10.07-6.98-.71-1.07-5.76-8.77-1.62-14.35,1.95-2.62,5.54-4.22,9.47-4.22,2.06,0,4.22.44,6.29,1.41-4.07-8.12-8.15-16.23-12.22-24.35,9.12,7.76,18.25,15.53,27.37,23.3-5.14-5-6.44-12.46-3.45-18.65.15-.32,3.4-6.78,9.77-8.69,1.19-.36,2.43-.53,3.68-.53,6.76,0,13.96,5.11,17.1,14.21l9.96-10.68-5.36,17.64c2.15-2.94,5.6-7.06,10.69-10.89,3.69-2.79,10.03-7.56,14.76-7.56.96,0,1.85.19,2.64.64,3.4,1.93,3.31,7.62,3.15,9.94,1.08.13,1.7.51,2.07.97,3.1,3.84-3.1,11.79-4.19,13.1l24.13-9.1Z"/>
    </g>
  </g>
</svg>